# xmcd
#
# Track frame offsets:
#	150
#	20699
#	36461
#	53883
#	69900
#	81622
#	97322
#	115755
#	127354
#	142444
#
# Disc length: 2126 seconds
#
# Revision: 1
# Processed by: cddbd v1.5.2PL0 Copyright (c) Steve Scherf et al.
# Submitted via: audiograbber 1.83.01
#
DISCID=a4084c0a
DTITLE=Eleven Hundred Springs - Here 'Tis
DYEAR=2020
DGENRE=Country
TTITLE0=This Morning It Was Too Late
TTITLE1=All Jokes Aside
TTITLE2=Miles Apart
TTITLE3=Fair Weather Friend
TTITLE4=Let's Move out to the Country
TTITLE5=The Song You'll Never Hear
TTITLE6=Looking Back
TTITLE7=Let Me Be Your Man
TTITLE8=Let Tomorrow Wait and See
TTITLE9=Nobody Cares
EXTD=
EXTT0=
EXTT1=
EXTT2=
EXTT3=
EXTT4=
EXTT5=
EXTT6=
EXTT7=
EXTT8=
EXTT9=
PLAYORDER=
